<svg xmlns="http://www.w3.org/2000/svg" viewBox="0 0 1440 320">
    <defs>
        <pattern id="grid" width="40" height="40" patternUnits="userSpaceOnUse">
            <path d="M 40 0 L 0 0 0 40" fill="none" stroke="white" stroke-width="1"/>
        </pattern>
    </defs>
    <rect width="100%" height="100%" fill="url(#grid)" />
    <path
        fill="#3b82f6"
        d="M0,160L34.3,165.3C68.6,171,137,181,206,165.3C274.3,149,343,107,411,101.3C480,96,549,128,617,154.7C685.7,181,754,203,823,197.3C891.4,192,960,160,1029,154.7C1097.1,149,1166,171,1234,181.3C1302.9,192,1371,192,1406,192L1440,192L1440,320L1405.7,320C1371.4,320,1303,320,1234,320C1165.7,320,1097,320,1029,320C960,320,891,320,823,320C754.3,320,686,320,617,320C548.6,320,480,320,411,320C342.9,320,274,320,206,320C137.1,320,69,320,34,320L0,320Z"
    >
        <animate
            attributeName="d"
            values="
                M0,160L34.3,165.3C68.6,171,137,181,206,165.3C274.3,149,343,107,411,101.3C480,96,549,128,617,154.7C685.7,181,754,203,823,197.3C891.4,192,960,160,1029,154.7C1097.1,149,1166,171,1234,181.3C1302.9,192,1371,192,1406,192L1440,192L1440,320L1405.7,320C1371.4,320,1303,320,1234,320C1165.7,320,1097,320,1029,320C960,320,891,320,823,320C754.3,320,686,320,617,320C548.6,320,480,320,411,320C342.9,320,274,320,206,320C137.1,320,69,320,34,320L0,320Z;
                
                M0,128L34.3,144C68.6,160,137,192,206,186.7C274.3,181,343,139,411,128C480,117,549,139,617,160C685.7,181,754,203,823,192C891.4,181,960,139,1029,133.3C1097.1,128,1166,160,1234,165.3C1302.9,171,1371,149,1406,138.7L1440,128L1440,320L1405.7,320C1371.4,320,1303,320,1234,320C1165.7,320,1097,320,1029,320C960,320,891,320,823,320C754.3,320,686,320,617,320C548.6,320,480,320,411,320C342.9,320,274,320,206,320C137.1,320,69,320,34,320L0,320Z;
                
                M0,192L34.3,181.3C68.6,171,137,149,206,144C274.3,139,343,149,411,165.3C480,181,549,203,617,197.3C685.7,192,754,160,823,144C891.4,128,960,128,1029,144C1097.1,160,1166,192,1234,186.7C1302.9,181,1371,139,1406,117.3L1440,96L1440,320L1405.7,320C1371.4,320,1303,320,1234,320C1165.7,320,1097,320,1029,320C960,320,891,320,823,320C754.3,320,686,320,617,320C548.6,320,480,320,411,320C342.9,320,274,320,206,320C137.1,320,69,320,34,320L0,320Z;
                
                M0,160L34.3,165.3C68.6,171,137,181,206,165.3C274.3,149,343,107,411,101.3C480,96,549,128,617,154.7C685.7,181,754,203,823,197.3C891.4,192,960,160,1029,154.7C1097.1,149,1166,171,1234,181.3C1302.9,192,1371,192,1406,192L1440,192L1440,320L1405.7,320C1371.4,320,1303,320,1234,320C1165.7,320,1097,320,1029,320C960,320,891,320,823,320C754.3,320,686,320,617,320C548.6,320,480,320,411,320C342.9,320,274,320,206,320C137.1,320,69,320,34,320L0,320Z;
                
                M0,160L34.3,180C68.6,200,137,240,206,230C274.3,220,343,180,411,170C480,160,549,180,617,200C685.7,220,754,240,823,230C891.4,220,960,180,1029,170C1097.1,160,1166,200,1234,210C1302.9,220,1371,200,1406,190L1440,180L1440,320L1405.7,320C1371.4,320,1303,320,1234,320C1165.7,320,1097,320,1029,320C960,320,891,320,823,320C754.3,320,686,320,617,320C548.6,320,480,320,411,320C342.9,320,274,320,206,320C137.1,320,69,320,34,320L0,320Z;
                
                M0,160L34.3,165.3C68.6,171,137,181,206,165.3C274.3,149,343,107,411,101.3C480,96,549,128,617,154.7C685.7,181,754,203,823,197.3C891.4,192,960,160,1029,154.7C1097.1,149,1166,171,1234,181.3C1302.9,192,1371,192,1406,192L1440,192L1440,320L1405.7,320C1371.4,320,1303,320,1234,320C1165.7,320,1097,320,1029,320C960,320,891,320,823,320C754.3,320,686,320,617,320C548.6,320,480,320,411,320C342.9,320,274,320,206,320C137.1,320,69,320,34,320L0,320Z"
            dur="20s"
            repeatCount="indefinite"
        />
    </path>
    <circle cx="200" cy="100" r="10" fill="none" stroke="white" stroke-width="2" opacity="0.7">
        <animate attributeName="cy" values="100;300;100" dur="10s" repeatCount="indefinite" />
    </circle>
    <circle cx="400" cy="200" r="15" fill="none" stroke="white" stroke-width="2" opacity="0.7">
        <animate attributeName="cy" values="200;50;200" dur="12s" repeatCount="indefinite" />
    </circle>
    <circle cx="600" cy="150" r="20" fill="none" stroke="white" stroke-width="2" opacity="0.7">
        <animate attributeName="cy" values="150;250;150" dur="8s" repeatCount="indefinite" />
    </circle>
    <circle cx="800" cy="250" r="12" fill="none" stroke="white" stroke-width="2" opacity="0.7">
        <animate attributeName="cy" values="250;100;250" dur="14s" repeatCount="indefinite" />
    </circle>
    <circle cx="1000" cy="50" r="18" fill="none" stroke="white" stroke-width="2" opacity="0.7">
        <animate attributeName="cy" values="50;200;50" dur="16s" repeatCount="indefinite" />
    </circle>
</svg>
