<?xml version="1.0" encoding="UTF-8"?>
<svg version="1.1" xmlns="http://www.w3.org/2000/svg" width="128" height="128">
  <path d="M0 0 C5.11963762 3.66725815 9.32377317 7.41683558 11.3125 13.5 C11.25 16.25 11.25 16.25 10.046875 17.8671875 C7.81091111 19.58790753 6.22148636 19.77432891 3.4375 20.125 C-2.34677159 21.16751407 -5.60835439 23.35669048 -9.15234375 28.14453125 C-13.98493062 35.4704528 -15.97131184 42.45156979 -14.75 51.25 C-12.63420756 56.58319582 -9.82060617 59.57384674 -4.75 62.25 C-4.42 63.24 -4.09 64.23 -3.75 65.25 C-3.02554688 64.68410156 -2.30109375 64.11820312 -1.5546875 63.53515625 C-0.58789062 62.80167969 0.37890625 62.06820312 1.375 61.3125 C2.80199219 60.21615234 2.80199219 60.21615234 4.2578125 59.09765625 C7.61652813 57.02367127 9.29871036 56.22129814 13.25 56.25 C16.5696949 57.39652356 19.63420643 58.95130037 22.75 60.5625 C24.40470731 61.39500049 26.06092592 62.22450486 27.71875 63.05078125 C28.49476562 63.43830566 29.27078125 63.82583008 30.0703125 64.22509766 C32.73011886 65.47575481 35.43169257 66.42189343 38.25 67.25 C37.755 69.23 37.755 69.23 37.25 71.25 C29.9548739 70.20783913 24.26489771 67.42734065 17.92382812 63.81835938 C13.92001479 61.61993489 13.92001479 61.61993489 9.4921875 61.83984375 C7.40822867 63.15048685 5.51379997 64.48572646 3.625 66.0625 C-2.49369977 70.81116832 -9.61200969 73.39480388 -16.75 76.25 C-13.12 77.57 -9.49 78.89 -5.75 80.25 C-4.76 78.27 -4.76 78.27 -3.75 76.25 C-0.8203125 74.25931491 1.50752832 74.02228024 5 74.125 C5.79921875 74.14304687 6.5984375 74.16109375 7.421875 74.1796875 C8.02515625 74.20289062 8.6284375 74.22609375 9.25 74.25 C9.1675 73.321875 9.085 72.39375 9 71.4375 C9.25 68.25 9.25 68.25 10.6875 66.1875 C14.08358108 64.94503131 16.11629107 65.88070908 19.39453125 67.16015625 C21.63945916 68.01697552 23.8382176 68.74920546 26.13671875 69.43359375 C27.15318481 69.74393555 27.15318481 69.74393555 28.19018555 70.06054688 C29.55170181 70.47495647 30.91647947 70.87881392 32.28442383 71.27148438 C34.1875 71.87109375 34.1875 71.87109375 37.25 73.25 C38.1875 75.41015625 38.1875 75.41015625 38.25 77.25 C29.23830962 76.92815391 21.51743022 73.56711617 13.25 70.25 C13.25 70.91 13.25 71.57 13.25 72.25 C13.83265625 72.51554687 14.4153125 72.78109375 15.015625 73.0546875 C17.31174228 74.28302996 19.05356018 75.65314939 21 77.375 C21.61359375 77.91382812 22.2271875 78.45265625 22.859375 79.0078125 C23.31828125 79.41773437 23.7771875 79.82765625 24.25 80.25 C23.755 81.735 23.755 81.735 23.25 83.25 C18.87972186 82.76441354 14.9050692 81.88681374 10.6875 80.625 C6.54179748 79.45599173 3.45201465 78.81246867 -0.75 80.25 C-1.08 80.91 -1.41 81.57 -1.75 82.25 C9.50764404 85.54650919 20.67854748 88.31091463 32.25 90.25 C32.58 91.57 32.91 92.89 33.25 94.25 C8.77983292 93.75881051 -21.68208522 84.29661498 -39.890625 67.3671875 C-41.73191165 66.0343164 -41.73191165 66.0343164 -44.15234375 66.3125 C-47.38485164 67.47911939 -49.42438518 69.17346146 -52.0625 71.375 C-61.74852149 78.90723535 -73.34364729 84.48858371 -85.75 84.25 C-85.42 82.93 -85.09 81.61 -84.75 80.25 C-83.89019531 80.04246094 -83.03039062 79.83492188 -82.14453125 79.62109375 C-70.93074478 76.69841658 -61.29206897 72.42298938 -52.375 64.8125 C-49.32712057 62.28162758 -48.00992744 61.30727215 -44.0625 60.4375 C-39.67054783 61.51477129 -37.24431268 63.39749985 -33.75 66.25 C-33.97816406 65.71890625 -34.20632812 65.1878125 -34.44140625 64.640625 C-34.72886719 63.93421875 -35.01632813 63.2278125 -35.3125 62.5 C-35.74755859 61.45585937 -35.74755859 61.45585937 -36.19140625 60.390625 C-36.82831803 57.94987216 -36.55248831 56.6096345 -35.75 54.25 C-32.75 55.25 -32.75 55.25 -31.5390625 57.359375 C-31.15492187 58.23078125 -30.77078125 59.1021875 -30.375 60 C-28.04781852 64.91450108 -25.76536524 68.74231738 -20.75 71.25 C-19.43 71.25 -18.11 71.25 -16.75 71.25 C-16.75 70.59 -16.75 69.93 -16.75 69.25 C-17.35199219 68.99863281 -17.95398438 68.74726562 -18.57421875 68.48828125 C-22.23081423 66.40723858 -24.07080837 63.03541907 -25.75 59.25 C-25.5625 56.25 -25.5625 56.25 -24.75 54.25 C-20.31819018 55.72726994 -19.49280513 58.92666783 -17.34765625 62.90234375 C-15.61580354 65.44719333 -14.64046611 66.2901678 -11.75 67.25 C-10.43 67.25 -9.11 67.25 -7.75 67.25 C-8.28109375 66.8375 -8.8121875 66.425 -9.359375 66 C-15.32716641 61.12122162 -19.16151693 57.0314249 -20.125 49.203125 C-20.54861948 37.92425645 -17.06510603 29.68762869 -9.75 21.25 C-8.13161081 19.51329515 -6.48002591 17.87825968 -4.75 16.25 C-10.32258299 17.20813186 -14.7098423 18.32704938 -18.125 23.0625 C-21.57971894 28.99048364 -23.14962945 35.63199709 -24.75 42.25 C-26.07 42.25 -27.39 42.25 -28.75 42.25 C-28.11631327 32.42785565 -24.83324375 24.6010433 -19.75 16.25 C-24.0633277 17.94150106 -26.09601127 19.03267445 -28.328125 23.1875 C-29.55801221 26.18446652 -30.70400662 29.18432355 -31.75 32.25 C-33.07 32.25 -34.39 32.25 -35.75 32.25 C-35.585 31.156875 -35.42 30.06375 -35.25 28.9375 C-34.68281816 25.37474127 -34.68281816 25.37474127 -34.75 22.25 C-37.32025846 26.5337641 -39.33707905 30.4225201 -40.75 35.25 C-39.8425 35.1675 -38.935 35.085 -38 35 C-34.75 35.25 -34.75 35.25 -32.3125 36.9375 C-30.75 39.25 -30.75 39.25 -30.875 41.875 C-31.75 44.25 -31.75 44.25 -33.75 46.25 C-34.42939174 48.24571323 -35.09561559 50.24594773 -35.75 52.25 C-36.41 53.24 -37.07 54.23 -37.75 55.25 C-38.38292383 57.36280345 -38.38292383 57.36280345 -38.75 59.25 C-39.74 59.25 -40.73 59.25 -41.75 59.25 C-42.245 55.29 -42.245 55.29 -42.75 51.25 C-41.76 50.59 -40.77 49.93 -39.75 49.25 C-39.40977214 47.25116131 -39.07670903 45.25109278 -38.75 43.25 C-37.1875 41.375 -37.1875 41.375 -35.75 40.25 C-42.14552313 39.79317692 -46.40501093 40.62068644 -51.75 44.25 C-53.92409281 46.14654904 -55.8033058 48.10863638 -57.75 50.25 C-59.235 49.755 -59.235 49.755 -60.75 49.25 C-60.27277765 44.95499883 -57.91686508 43.00379572 -54.75 40.25 C-51.47886631 38.03337651 -48.81334257 36.25 -44.75 36.25 C-44.6675 35.095 -44.585 33.94 -44.5 32.75 C-43.69143943 26.49196274 -41.35653011 21.96861361 -37.0625 17.375 C-33.5152547 15.09940868 -30.80919545 14.34249453 -26.703125 13.70703125 C-24.52739048 13.37898857 -24.52739048 13.37898857 -22.75 11.25 C-20.17122207 11.5984835 -17.7572462 12.2480073 -15.25 12.9375 C-12.70276858 13.46384401 -12.70276858 13.46384401 -10.3125 12.25 C-7.0629733 10.98189202 -5.09490076 11.43235759 -1.75 12.25 C-1.09 12.58 -0.43 12.91 0.25 13.25 C0.25 13.91 0.25 14.57 0.25 15.25 C2.23 14.92 4.21 14.59 6.25 14.25 C2.8639337 7.47786739 -2.14714973 3.58382253 -9.125 0.875 C-22.04674194 -3.00476925 -35.45822603 -1.61997036 -47.375 4.5 C-58.31988034 11.01297457 -63.98146325 19.84892907 -69.73144531 30.97045898 C-76.74920841 44.5232196 -76.74920841 44.5232196 -81.75 48.25 C-83.07 48.25 -84.39 48.25 -85.75 48.25 C-85.14568455 44.64860657 -83.67376219 42.61078225 -81.375 39.8125 C-78.9010039 36.73397508 -76.65515738 33.72411053 -74.75 30.25 C-75.8225 30.91 -76.895 31.57 -78 32.25 C-81.05980686 34.13295807 -81.8835864 34.25 -85.75 34.25 C-85.75 32.93 -85.75 31.61 -85.75 30.25 C-83.66015625 28.64453125 -83.66015625 28.64453125 -80.8125 27.0625 C-73.3229321 22.56299066 -67.85574541 16.8053214 -62.3125 10.125 C-47.60491064 -6.84789623 -19.26403283 -11.88902356 0 0 Z " fill="#EDEDED" transform="translate(87.75,19.75)" />
  <path d="M0 0 C3.03515625 1.5390625 3.03515625 1.5390625 6.0625 3.625 C16.17259937 10.25113448 26.88077943 14.33005636 38.57910156 17.17651367 C40.67578125 17.7265625 40.67578125 17.7265625 44 19 C44.70776367 21.07958984 44.70776367 21.07958984 45 23 C38.22500115 22.45882213 32.2434346 21.11030605 25.8125 18.9375 C24.90064941 18.63239502 23.98879883 18.32729004 23.04931641 18.01293945 C13.90095647 14.82463046 6.04922308 10.36614872 -2 5 C-4.64632287 5.3121764 -4.64632287 5.3121764 -7 6 C-7 7.32 -7 8.64 -7 10 C-4.9713506 11.9264067 -4.9713506 11.9264067 -2.3125 13.5625 C-1.00732422 14.43068359 -1.00732422 14.43068359 0.32421875 15.31640625 C2.8626919 16.91360614 5.42014334 18.47067956 8 20 C7.67 20.99 7.34 21.98 7 23 C2.00412496 22.49891672 -1.11026847 20.99065992 -5.25 18.1875 C-6.28640625 17.50042969 -7.3228125 16.81335938 -8.390625 16.10546875 C-10.88198978 14.09522082 -12.01002306 12.99422473 -13 10 C-12.91986781 6.15365467 -12.45687085 4.51062036 -9.875 1.625 C-6.22831231 -0.43617131 -4.1549606 -0.36854983 0 0 Z " fill="#EDEDED" transform="translate(49,91)" />
  <path d="M0 0 C3.5541145 2.05707839 6.75466789 4.49224337 10 7 C10.99 7.66 11.98 8.32 13 9 C12.67 9.99 12.34 10.98 12 12 C7.04476776 11.31080397 4.21201822 9.21849955 0.28125 6.27734375 C-2.36253798 4.79700356 -4.01710081 4.75317559 -7 5 C-7.2475 5.969375 -7.495 6.93875 -7.75 7.9375 C-8.1625 8.948125 -8.575 9.95875 -9 11 C-11.125 11.875 -11.125 11.875 -13 12 C-14 9 -14 9 -13.07421875 6.9921875 C-12.61660156 6.29351562 -12.15898437 5.59484375 -11.6875 4.875 C-11.23761719 4.17117187 -10.78773437 3.46734375 -10.32421875 2.7421875 C-7.7061879 -0.70218346 -4.00838324 -0.92163556 0 0 Z " fill="#EDEDED" transform="translate(32,102)" />
  <path d="M0 0 C1.9375 1.625 1.9375 1.625 3 4 C2.77962372 7.67293796 2.63033454 9.36966546 0 12 C-3.10347254 12.33015665 -5.15781176 12.50531294 -7.875 10.875 C-9.52854531 8.11909116 -9.39365568 6.14924548 -9 3 C-6.79848461 -0.66919231 -4.00961374 -0.58473534 0 0 Z M-5 4 C-4.67 5.32 -4.34 6.64 -4 8 C-3.01 7.67 -2.02 7.34 -1 7 C-1.33 6.01 -1.66 5.02 -2 4 C-2.99 4 -3.98 4 -5 4 Z " fill="#EDEDED" transform="translate(89,55)" />
  <path d="M0 0 C0.763125 0.20625 1.52625 0.4125 2.3125 0.625 C3.64091008 6.05940487 3.64091008 6.05940487 2.1875 8.5625 C0.3125 9.625 0.3125 9.625 -2.3125 9.375 C-4.6875 8.625 -4.6875 8.625 -5.6875 7.625 C-5.9375 4.6875 -5.9375 4.6875 -5.6875 1.625 C-2.6875 -0.375 -2.6875 -0.375 0 0 Z " fill="#EEEEEE" transform="translate(111.6875,55.375)" />
  <path d="M0 0 C1.32 0 2.64 0 4 0 C4 1.32 4 2.64 4 4 C2.68 4 1.36 4 0 4 C0 2.68 0 1.36 0 0 Z " fill="#F1F1F1" transform="translate(113,69)" />
  <path d="M0 0 C1.32 0 2.64 0 4 0 C3.67 1.32 3.34 2.64 3 4 C2.01 4 1.02 4 0 4 C0 2.68 0 1.36 0 0 Z " fill="#EFEFEF" transform="translate(93,45)" />
  <path d="M0 0 C0.99 0 1.98 0 3 0 C3 1.32 3 2.64 3 4 C1.68 3.67 0.36 3.34 -1 3 C-0.67 2.01 -0.34 1.02 0 0 Z " fill="#EFEFEF" transform="translate(25,71)" />
  <path d="M0 0 C1.32 0.33 2.64 0.66 4 1 C3.67 1.99 3.34 2.98 3 4 C2.01 4 1.02 4 0 4 C0 2.68 0 1.36 0 0 Z " fill="#ECECEC" transform="translate(60,67)" />
</svg>